<svg xmlns="http://www.w3.org/2000/svg" style="display:none">

  <symbol id="email" viewBox="0 0 24 24" fill="none" stroke="currentColor" stroke-width="2">
    <rect x="2" y="4" width="20" height="16" rx="2"/>
    <path d="m22 7-8.97 5.7a1.94 1.94 0 0 1-2.06 0L2 7"/>
  </symbol>

  <symbol id="phone" viewBox="0 0 24 24" fill="none" stroke="currentColor" stroke-width="2">
    <path d="M22 16.92v3a2 2 0 0 1-2.18 2 19.79 19.79 0 0 1-8.63-3.07A19.5 19.5 0 0 1 4.69 12 19.79 19.79 0 0 1 1.61 3.41 2 2 0 0 1 3.6 1.2h3a2 2 0 0 1 2 1.72c.127.96.361 1.903.7 2.81a2 2 0 0 1-.45 2.11L7.91 8.78a16 16 0 0 0 6.29 6.29l.95-.95a2 2 0 0 1 2.11-.45c.907.339 1.85.573 2.81.7A2 2 0 0 1 22 16.92z"/>
  </symbol>

  <symbol id="info-circle" viewBox="0 0 16 16" fill="currentColor">
    <path d="M8 15A7 7 0 1 1 8 1a7 7 0 0 1 0 14m0 1A8 8 0 1 0 8 0a8 8 0 0 0 0 16"/>
    <path d="m8.93 6.588-2.29.287-.082.38.45.083c.294.07.352.176.288.469l-.738 3.468c-.194.897.105 1.319.808 1.319.545 0 1.178-.252 1.465-.598l.088-.416c-.2.176-.492.246-.686.246-.275 0-.375-.193-.304-.533zM9 4.5a1 1 0 1 1-2 0 1 1 0 0 1 2 0"/>
  </symbol>

  <symbol id="youtube" viewBox="0 0 24 24" fill="currentColor">
    <path d="M22.54 6.42a2.78 2.78 0 0 0-1.95-1.96C18.88 4 12 4 12 4s-6.88 0-8.59.46A2.78 2.78 0 0 0 1.46 6.42 29 29 0 0 0 1 12a29 29 0 0 0 .46 5.58 2.78 2.78 0 0 0 1.95 1.96C5.12 20 12 20 12 20s6.88 0 8.59-.46a2.78 2.78 0 0 0 1.96-1.96A29 29 0 0 0 23 12a29 29 0 0 0-.46-5.58z"/>
    <polygon points="9.75 15.02 15.5 12 9.75 8.98 9.75 15.02" fill="white"/>
  </symbol>

  <symbol id="facebook" viewBox="0 0 24 24" fill="currentColor">
    <path d="M18 2h-3a5 5 0 0 0-5 5v3H7v4h3v8h4v-8h3l1-4h-4V7a1 1 0 0 1 1-1h3z"/>
  </symbol>

  <symbol id="instagram" viewBox="0 0 24 24" fill="none" stroke="currentColor" stroke-width="2" stroke-linecap="round" stroke-linejoin="round">
    <rect x="2" y="2" width="20" height="20" rx="5" ry="5"/>
    <path d="M16 11.37A4 4 0 1 1 12.63 8 4 4 0 0 1 16 11.37z"/>
    <line x1="17.5" y1="6.5" x2="17.51" y2="6.5"/>
  </symbol>

  <symbol id="whatsapp" viewBox="0 0 32 32" fill="currentColor">
    <path d="M16 0C7.163 0 0 7.163 0 16c0 2.822.736 5.474 2.027 7.776L0 32l8.437-2.01A15.94 15.94 0 0 0 16 32c8.837 0 16-7.163 16-16S24.837 0 16 0zm0 29.333a13.27 13.27 0 0 1-6.771-1.854l-.486-.29-5.007 1.194 1.228-4.877-.317-.502A13.267 13.267 0 0 1 2.667 16C2.667 8.636 8.636 2.667 16 2.667S29.333 8.636 29.333 16 23.364 29.333 16 29.333zm7.273-9.87c-.398-.199-2.354-1.162-2.72-1.294-.365-.133-.63-.199-.896.199-.265.398-1.029 1.294-1.261 1.56-.232.265-.465.298-.863.1-.398-.2-1.681-.62-3.202-1.977-1.183-1.056-1.982-2.36-2.214-2.758-.232-.398-.025-.613.174-.811.179-.178.398-.465.597-.697.199-.232.265-.398.398-.664.133-.265.066-.497-.033-.697-.1-.199-.896-2.16-1.228-2.957-.323-.777-.65-.671-.896-.683l-.763-.013c-.265 0-.697.1-1.062.497-.365.398-1.394 1.362-1.394 3.322 0 1.96 1.427 3.854 1.626 4.12.199.265 2.808 4.286 6.803 6.012.951.41 1.693.655 2.271.838.954.303 1.823.26 2.51.158.765-.114 2.354-.963 2.686-1.892.332-.93.332-1.727.232-1.892-.1-.166-.365-.265-.763-.464z"/>
  </symbol>

  
</svg>
